name analog
datacolumns 19
datarows 28
range 0.0 0.0135
endheader
time	ground_force_vx	ground_force_vy	ground_force_vz	ground_force_px	ground_force_py	ground_force_pz	l_ground_force_vx	l_ground_force_vy	l_ground_force_vz	l_ground_force_px	l_ground_force_py	l_ground_force_pz	ground_torque_x	ground_torque_y	ground_torque_z	l_ground_torque_x	l_ground_torque_y	l_ground_torque_z
0.0	-0.0	-0.0	-0.0	-4.879122257232666	44.20867919921875	-432.2107543945313	0.3954086005687713	-52.31673049926758	-350.93731689453125	-0.0	-0.0	-0.0	-0.0	-0.0	-0.0	73392.28125	35363.375	-6891.67333984375
0.0005	-0.0	-0.0	-0.0	-5.1845383644104	44.22931671142578	-428.9240112304688	0.9176406860351562	-52.30670547485352	-352.7920227050781	-0.0	-0.0	-0.0	-0.0	-0.0	-0.0	73517.5234375	35522.41015625	-6815.908203125
0.001	-0.0	-0.0	-0.0	-5.1160888671875	44.06778335571289	-429.006591796875	0.3446313738822937	-52.7280502319336	-351.6358947753906	-0.0	-0.0	-0.0	-0.0	-0.0	-0.0	73547.609375	35580.0390625	-6875.78515625
0.0015	-0.0	-0.0	-0.0	-5.14301061630249	43.60555267333984	-429.6141357421875	0.1399509310722351	-52.30684280395508	-352.5624694824219	-0.0	-0.0	-0.0	-0.0	-0.0	-0.0	73458.9921875	35452.55859375	-6895.2431640625
0.002	-0.0	-0.0	-0.0	-5.221675395965576	43.7421760559082	-428.67779541015625	-0.0	-52.9725341796875	-351.6766662597656	-0.0	-0.0	-0.0	-0.0	-0.0	-0.0	73670.28125	35721.92578125	-6987.943359375
0.0025	-0.0	-0.0	-0.0	-5.153268337249756	42.88218688964844	-428.7604370117188	-0.334206223487854	-52.70750427246094	-353.1547546386719	-0.0	-0.0	-0.0	-0.0	-0.0	-0.0	73364.9453125	35802.5	-7099.88037109375
0.003	-0.0	-0.0	-0.0	-4.759677886962891	43.32787322998047	-428.9888610839844	0.1567121595144271	-52.82667922973633	-353.40533447265625	-0.0	-0.0	-0.0	-0.0	-0.0	-0.0	73539.0078125	36028.5	-7069.88525390625
0.0035	-0.0	-0.0	-0.0	-4.6811203956604	43.28577423095703	-426.3106689453125	-0.5530465841293335	-53.07099151611328	-353.87615966796875	-0.0	-0.0	-0.0	-0.0	-0.0	-0.0	73677.1328125	35828.40625	-7290.37939453125
0.004	-0.0	-0.0	-0.0	-4.843111038208008	42.88229370117188	-428.40728759765625	-0.4748293757438659	-52.91507339477539	-353.3824768066406	-0.0	-0.0	-0.0	-0.0	-0.0	-0.0	73396.2890625	36044.765625	-7290.21533203125
0.0045000000000000005	-0.0	-0.0	-0.0	-4.513597011566162	42.92475128173828	-427.7849731445313	-0.7565515041351318	-53.169654846191406	-352.90997314453125	-0.0	-0.0	-0.0	-0.0	-0.0	-0.0	73301.265625	36063.26953125	-7229.40087890625
0.005	-0.0	-0.0	-0.0	-4.796066284179688	42.73603057861328	-426.8522033691406	-0.7774018049240112	-53.14875030517578	-351.595703125	-0.0	-0.0	-0.0	-0.0	-0.0	-0.0	73481.609375	36294.5	-7412.5107421875
0.0055	-0.0	-0.0	-0.0	-4.492579936981201	43.04998779296875	-427.8848876953125	-1.17430317401886	-53.169654846191406	-352.66070556640625	-0.0	-0.0	-0.0	-0.0	-0.0	-0.0	73467.796875	36327.0390625	-7423.30712890625
0.006	-0.0	-0.0	-0.0	-4.214335918426514	43.03927612304688	-426.90966796875	-1.1891140937805176	-53.18017578125	-351.3297119140625	-0.0	-0.0	-0.0	-0.0	-0.0	-0.0	73358.8828125	36052.87890625	-7367.501953125
0.006500000000000001	-0.0	-0.0	-0.0	-4.2359232902526855	42.92861175537109	-426.9093933105469	-1.1850510835647583	-53.52680969238281	-352.1687927246094	-0.0	-0.0	-0.0	-0.0	-0.0	-0.0	73436.734375	36411.92578125	-7362.73095703125
0.007	-0.0	-0.0	-0.0	-4.238929271697998	42.76895523071289	-426.1913757324219	-1.075169324874878	-53.18024826049805	-349.3609924316406	-0.0	-0.0	-0.0	-0.0	-0.0	-0.0	73341.6015625	36452.078125	-7478.9365234375
0.0075	-0.0	-0.0	-0.0	-3.622560977935791	42.81763458251953	-428.9850463867188	-1.3980244398117063	-53.325042724609375	-351.2465209960937	-0.0	-0.0	-0.0	-0.0	-0.0	-0.0	73052.546875	36253.203125	-7411.59228515625
0.008	-0.0	-0.0	-0.0	-3.992743730545044	42.650047302246094	-426.0731506347656	-1.820085287094116	-53.049346923828125	-351.818359375	-0.0	-0.0	-0.0	-0.0	-0.0	-0.0	73320.0078125	36258.10546875	-7561.19189453125
0.0085	-0.0	-0.0	-0.0	-3.657630920410156	43.30848693847656	-428.9410095214844	-1.6532652378082275	-53.19105529785156	-352.30474853515625	-0.0	-0.0	-0.0	-0.0	-0.0	-0.0	73193.96875	36202.3359375	-7512.50146484375
0.009000000000000001	-0.0	-0.0	-0.0	-3.8032455444335938	42.46977233886719	-429.1569213867188	-1.6962857246398926	-53.15892028808594	-351.6805725097656	-0.0	-0.0	-0.0	-0.0	-0.0	-0.0	73059.796875	36353.171875	-7608.70263671875
0.0095	-0.0	-0.0	-0.0	-4.048823833465576	42.67154312133789	-428.2278137207031	-1.6400622129440308	-53.4130859375	-351.6382751464844	-0.0	-0.0	-0.0	-0.0	-0.0	-0.0	73331.546875	36421.5390625	-7676.0166015625
0.01	-0.0	-0.0	-0.0	-3.6124536991119385	42.57133865356445	-427.7445068359375	-2.0294947624206543	-52.98033142089844	-352.2085876464844	-0.0	-0.0	-0.0	-0.0	-0.0	-0.0	73010.0703125	36320.6484375	-7586.48876953125
0.0105	-0.0	-0.0	-0.0	-3.4460818767547607	43.08395004272461	-428.8478698730469	-1.973412036895752	-53.24713897705078	-351.4671325683594	-0.0	-0.0	-0.0	-0.0	-0.0	-0.0	73420.3515625	36592.9609375	-7590.18017578125
0.011	-0.0	-0.0	-0.0	-3.23431396484375	42.514625549316406	-428.8481750488281	-2.1399824619293213	-53.47943878173828	-351.33251953125	-0.0	-0.0	-0.0	-0.0	-0.0	-0.0	73111.1015625	36277.5390625	-7653.81689453125
0.0115	-0.0	-0.0	-0.0	-3.077619791030884	42.381649017333984	-429.8200073242188	-2.1400187015533447	-53.0704231262207	-351.1171264648437	-0.0	-0.0	-0.0	-0.0	-0.0	-0.0	73097.2109375	36240.89453125	-7582.65185546875
0.012	-0.0	-0.0	-0.0	-3.1000680923461914	42.180965423583984	-430.4822082519531	-1.950878858566284	-53.20249176025391	-351.5091552734375	-0.0	-0.0	-0.0	-0.0	-0.0	-0.0	72848.1484375	36171.74609375	-7701.5634765625
0.0125	-0.0	-0.0	-0.0	-2.9439468383789062	42.125431060791016	-429.7757263183594	-1.9736979007720947	-53.25798034667969	-350.5482177734375	-0.0	-0.0	-0.0	-0.0	-0.0	-0.0	72982.59375	36141.0234375	-7642.27783203125
0.013000000000000001	-0.0	-0.0	-0.0	-3.3675537109375	42.39243316650391	-429.42236328125	-1.7742156982421875	-52.97097396850586	-349.9805908203125	-0.0	-0.0	-0.0	-0.0	-0.0	-0.0	73098.5078125	36232.0859375	-7656.9365234375
0.0135	-0.0	-0.0	-0.0	-2.7655258178710938	42.29195785522461	-430.2589721679688	-1.9959466457366943	-52.98196029663086	-348.8461608886719	-0.0	-0.0	-0.0	-0.0	-0.0	-0.0	72644.34375	36139.53125	-7638.53515625
